<?xml version="1.0" standalone="no"?>
<!DOCTYPE svg PUBLIC "-//W3C//DTD SVG 20010904//EN"
 "http://www.w3.org/TR/2001/REC-SVG-20010904/DTD/svg10.dtd">
<svg version="1.0" xmlns="http://www.w3.org/2000/svg"
 width="557.000000pt" height="441.000000pt" viewBox="0 0 557.000000 441.000000"
 preserveAspectRatio="xMidYMid meet">

<g transform="translate(0.000000,441.000000) scale(0.100000,-0.100000)"
fill="#000000" stroke="none">
<path d="M3810 3950 c0 -19 -7 -20 -130 -20 -109 0 -130 -2 -130 -15 0 -11
-12 -15 -45 -15 -38 0 -45 -3 -45 -20 0 -17 -7 -20 -45 -20 -38 0 -45 -3 -45
-20 0 -16 -7 -20 -35 -20 -24 0 -35 -5 -35 -15 0 -10 -11 -15 -35 -15 -28 0
-35 -4 -35 -20 0 -13 -7 -20 -20 -20 -11 0 -20 -4 -20 -10 0 -5 -11 -10 -25
-10 -18 0 -25 -5 -25 -20 0 -11 -7 -20 -15 -20 -8 0 -15 -9 -15 -20 0 -13 -7
-20 -20 -20 -11 0 -20 -7 -20 -15 0 -8 -9 -15 -20 -15 -13 0 -20 -7 -20 -20 0
-11 -7 -20 -15 -20 -9 0 -15 -9 -15 -25 0 -18 -5 -25 -20 -25 -11 0 -20 -7
-20 -15 0 -8 -7 -15 -15 -15 -10 0 -15 -11 -15 -35 0 -28 -4 -35 -20 -35 -17
0 -20 -7 -20 -40 0 -33 -3 -40 -20 -40 -16 0 -20 -7 -20 -30 0 -20 -5 -30 -15
-30 -12 0 -15 -14 -15 -70 0 -68 -1 -70 -25 -70 l-25 0 0 -455 0 -455 -720 0
-720 0 0 255 c0 248 1 255 20 255 15 0 20 7 20 25 0 16 6 25 15 25 8 0 15 5
15 10 0 6 9 10 20 10 11 0 20 5 20 10 0 6 14 10 30 10 23 0 30 4 30 20 0 19 7
20 135 20 128 0 135 -1 135 -20 0 -16 7 -20 35 -20 19 0 35 -4 35 -10 0 -5 9
-10 20 -10 11 0 20 -4 20 -10 0 -5 9 -10 20 -10 15 0 20 -7 20 -25 0 -16 6
-25 15 -25 13 0 15 -28 15 -190 l0 -189 308 -3 c169 -2 319 -2 335 0 l27 3 0
225 c0 192 -2 224 -15 224 -11 0 -15 12 -15 50 0 43 -3 50 -20 50 -16 0 -20 7
-20 35 0 31 -3 35 -25 35 -22 0 -25 4 -25 35 0 19 -4 35 -10 35 -5 0 -10 20
-10 45 0 33 -4 45 -15 45 -8 0 -15 7 -15 15 0 8 -9 15 -20 15 -13 0 -20 7 -20
20 0 11 -7 20 -15 20 -8 0 -15 9 -15 20 0 15 -7 20 -25 20 -16 0 -25 6 -25 15
0 8 -9 15 -20 15 -11 0 -20 7 -20 15 0 8 -7 15 -15 15 -8 0 -15 7 -15 15 0 11
-11 15 -40 15 -33 0 -40 3 -40 20 0 11 -7 20 -15 20 -8 0 -15 9 -15 20 0 17
-7 20 -40 20 -29 0 -40 4 -40 15 0 11 -11 15 -40 15 -33 0 -40 3 -40 20 0 18
-7 20 -75 20 -60 0 -75 3 -75 15 0 13 -31 15 -220 15 -189 0 -220 -2 -220 -15
0 -12 -13 -15 -60 -15 -53 0 -60 -2 -60 -20 0 -18 -7 -20 -55 -20 -42 0 -55
-3 -55 -15 0 -10 -11 -15 -35 -15 -28 0 -35 -4 -35 -20 0 -13 -7 -20 -20 -20
-13 0 -20 -7 -20 -20 0 -16 -7 -20 -35 -20 -24 0 -35 -5 -35 -15 0 -9 -9 -15
-25 -15 -16 0 -25 -6 -25 -15 0 -8 -4 -15 -10 -15 -5 0 -10 -7 -10 -15 0 -9
-9 -15 -25 -15 -18 0 -25 -5 -25 -20 0 -13 -7 -20 -20 -20 -13 0 -20 -7 -20
-20 0 -11 -7 -20 -15 -20 -10 0 -15 -11 -15 -35 0 -28 -4 -35 -20 -35 -16 0
-20 -7 -20 -35 0 -28 -4 -35 -20 -35 -17 0 -20 -7 -20 -45 0 -33 -4 -45 -15
-45 -12 0 -15 -13 -15 -55 0 -48 -2 -55 -20 -55 -20 0 -20 -7 -20 -625 l0
-625 1380 0 c1218 0 1381 2 1386 15 4 8 15 15 25 15 18 0 19 20 19 720 0 473
3 720 10 720 6 0 10 20 10 45 0 33 4 45 15 45 8 0 15 7 15 15 0 8 9 15 20 15
13 0 20 7 20 20 0 11 7 20 15 20 8 0 15 9 15 20 0 17 7 20 45 20 33 0 45 4 45
15 0 12 13 15 55 15 42 0 55 3 55 15 0 12 17 15 95 15 78 0 95 -3 95 -15 0
-12 13 -15 55 -15 42 0 55 -3 55 -15 0 -10 11 -15 35 -15 28 0 35 -4 35 -20 0
-13 7 -20 20 -20 13 0 20 -7 20 -20 0 -15 7 -20 25 -20 16 0 25 -6 25 -15 0
-8 5 -15 10 -15 6 0 10 -20 10 -45 0 -41 2 -45 25 -45 l25 0 0 -735 0 -735
330 0 330 0 0 781 c0 772 -1 780 -20 774 -19 -6 -20 -1 -20 69 0 61 -3 76 -15
76 -10 0 -15 10 -15 30 0 23 -4 30 -20 30 -17 0 -20 7 -20 40 0 33 -3 40 -20
40 -16 0 -20 7 -20 35 0 24 -5 35 -15 35 -8 0 -15 7 -15 15 0 8 -9 15 -20 15
-15 0 -20 7 -20 25 0 20 -5 25 -25 25 -18 0 -25 5 -25 20 0 11 -5 20 -11 20
-5 0 -8 4 -5 8 5 9 -28 64 -38 63 -38 -5 -56 1 -56 19 0 11 -7 20 -15 20 -8 0
-15 5 -15 10 0 6 -9 10 -20 10 -13 0 -20 7 -20 20 0 16 -7 20 -30 20 -20 0
-30 5 -30 15 0 11 -11 15 -40 15 -33 0 -40 3 -40 20 0 16 -7 20 -35 20 -28 0
-35 4 -35 20 0 18 -7 20 -60 20 -47 0 -60 3 -60 15 0 13 -22 15 -135 15 -128
0 -135 1 -135 20 0 18 -7 20 -55 20 -48 0 -55 -2 -55 -20z"/>
<path d="M3700 2830 c0 -5 -16 -10 -35 -10 -19 0 -35 -4 -35 -10 0 -5 -11 -10
-25 -10 -23 0 -25 -4 -25 -45 0 -33 -4 -45 -15 -45 -13 0 -15 -69 -15 -560 l0
-560 320 0 320 0 0 560 c0 553 0 560 -20 560 -15 0 -20 7 -20 25 0 19 -4 23
-17 19 -15 -5 -15 -4 -4 4 8 6 16 18 17 26 2 12 -6 16 -32 16 -19 0 -34 5 -34
10 0 6 -9 10 -20 10 -11 0 -20 5 -20 10 0 6 -63 10 -170 10 -107 0 -170 -4
-170 -10z"/>
<path d="M1330 1400 c0 -15 -7 -20 -25 -20 -16 0 -25 -6 -25 -16 0 -8 -4 -12
-10 -9 -16 10 -12 -84 4 -101 20 -19 155 -22 167 -3 8 12 10 12 18 1 13 -20
21 9 21 74 l0 54 -40 0 c-33 0 -40 3 -40 20 0 16 -7 20 -35 20 -28 0 -35 -4
-35 -20z"/>
<path d="M2110 1400 c0 -16 -7 -20 -35 -20 l-35 0 0 -60 c0 -47 3 -60 15 -60
8 0 15 -4 15 -10 0 -6 32 -10 75 -10 43 0 75 4 75 10 0 6 9 10 20 10 18 0 20
7 20 60 l0 60 -40 0 c-33 0 -40 3 -40 20 0 16 -7 20 -35 20 -28 0 -35 -4 -35
-20z"/>
<path d="M650 1000 l0 -350 75 0 c60 0 75 3 75 15 0 8 7 15 15 15 8 0 15 -7
15 -15 0 -13 22 -15 135 -15 113 0 135 2 135 15 0 8 9 15 20 15 13 0 20 7 20
20 0 11 7 20 15 20 9 0 15 9 15 25 0 18 5 25 20 25 19 0 20 7 20 135 0 128 -1
135 -20 135 -13 0 -20 7 -20 20 0 11 -7 20 -15 20 -8 0 -15 9 -15 20 0 13 -7
20 -20 20 -11 0 -20 6 -20 14 0 11 -24 14 -115 15 -97 1 -115 -1 -115 -14 0
-8 -9 -15 -20 -15 -19 0 -20 7 -20 115 l0 115 -90 0 -90 0 0 -350z m340 -5 c0
-8 9 -15 20 -15 19 0 20 -7 20 -90 l0 -90 -100 0 -100 0 0 90 c0 83 1 90 20
90 11 0 20 7 20 15 0 12 13 15 60 15 47 0 60 -3 60 -15z"/>
<path d="M1540 1000 l0 -350 78 0 c47 0 83 5 90 12 9 9 12 100 12 350 l0 338
-90 0 -90 0 0 -350z"/>
<path d="M1810 1000 l0 -350 70 0 70 0 0 350 0 350 -70 0 -70 0 0 -350z"/>
<path d="M3810 1000 l0 -350 100 0 100 0 0 75 0 75 35 0 c24 0 35 -5 35 -15 0
-8 9 -15 20 -15 15 0 20 -7 20 -25 0 -16 6 -25 15 -25 8 0 15 -9 15 -20 0 -13
7 -20 20 -20 11 0 20 -7 20 -15 0 -12 19 -15 115 -15 96 0 115 3 115 15 0 8
-9 15 -20 15 -13 0 -20 7 -20 20 0 11 -7 20 -15 20 -11 0 -15 11 -15 40 0 33
-3 40 -20 40 -13 0 -20 7 -20 20 0 15 -7 20 -25 20 -16 0 -25 6 -25 15 0 8 -4
15 -10 15 -5 0 -10 9 -10 20 0 15 -7 20 -25 20 -18 0 -25 5 -25 20 0 15 7 20
25 20 16 0 25 6 25 15 0 8 5 15 10 15 6 0 10 7 10 15 0 9 9 15 25 15 16 0 25
6 25 15 0 9 9 15 21 15 16 0 20 5 16 20 -4 15 0 20 14 20 15 0 19 7 19 35 l0
35 -95 0 c-78 0 -95 -3 -95 -15 0 -8 -9 -15 -20 -15 -13 0 -20 -7 -20 -19 0
-10 -9 -21 -20 -24 -14 -4 -18 -10 -13 -23 5 -13 3 -16 -10 -11 -9 3 -19 1
-23 -4 -3 -6 -14 -9 -24 -6 -13 3 -17 0 -13 -9 3 -9 -2 -14 -16 -14 -21 0 -21
4 -21 170 l0 170 -100 0 -100 0 0 -350z"/>
<path d="M1386 1203 c-6 -14 -5 -15 5 -6 7 7 10 15 7 18 -3 3 -9 -2 -12 -12z"/>
<path d="M1280 900 l0 -250 100 0 100 0 0 235 c0 228 -1 235 -20 235 -11 0
-20 7 -20 15 0 12 -16 15 -80 15 l-80 0 0 -250z"/>
<path d="M2070 900 l0 -250 75 0 c76 0 82 4 76 43 0 4 9 7 21 8 l23 0 -22 9
c-23 9 -23 12 -23 190 0 173 1 180 20 180 12 0 20 7 20 16 0 9 -9 18 -20 21
-11 3 -20 12 -20 19 0 11 -18 14 -75 14 l-75 0 0 -250z"/>
<path d="M2330 1135 c0 -8 -9 -15 -20 -15 -19 0 -20 -7 -20 -220 0 -213 1
-220 20 -220 11 0 20 -7 20 -15 0 -12 15 -15 75 -15 60 0 75 3 75 15 0 8 5 15
10 15 6 0 10 57 10 150 l0 150 25 0 c16 0 25 6 25 15 0 12 13 15 55 15 54 0
55 0 55 -30 0 -23 4 -30 20 -30 19 0 20 -7 20 -170 l0 -170 75 0 c68 0 75 2
75 20 0 13 7 20 20 20 19 0 20 7 20 100 0 87 -2 100 -17 100 -15 0 -14 2 3 15
19 14 18 14 -3 15 -23 0 -32 23 -13 35 6 3 10 1 10 -5 0 -6 4 -9 9 -5 6 3 9
14 8 25 -1 13 -5 16 -13 10 -18 -16 -24 0 -24 72 0 54 -3 68 -15 68 -8 0 -15
9 -15 20 0 15 -7 20 -25 20 -16 0 -25 6 -25 15 0 12 -19 15 -110 15 -91 0
-110 -3 -110 -15 0 -10 -11 -15 -35 -15 -24 0 -35 5 -35 15 0 12 -15 15 -75
15 -60 0 -75 -3 -75 -15z"/>
<path d="M3070 1135 c0 -10 -11 -15 -35 -15 -28 0 -35 -4 -35 -20 0 -13 -7
-20 -20 -20 -13 0 -20 -7 -20 -20 0 -11 -7 -20 -15 -20 -12 0 -15 -20 -15
-120 0 -100 3 -120 15 -120 8 0 15 -7 15 -15 0 -8 9 -15 20 -15 15 0 20 -7 20
-25 0 -16 6 -25 15 -25 8 0 15 -9 15 -20 0 -19 7 -20 135 -20 128 0 135 1 135
20 0 13 7 20 20 20 16 0 20 -7 20 -35 0 -28 -4 -35 -20 -35 -13 0 -20 -7 -20
-20 0 -16 -7 -20 -35 -20 -28 0 -35 -4 -35 -20 0 -17 -7 -20 -45 -20 -38 0
-45 3 -45 20 0 18 -7 20 -55 20 -48 0 -55 2 -55 20 0 11 -7 20 -15 20 -11 0
-15 -11 -15 -40 0 -33 -3 -40 -20 -40 -16 0 -20 -7 -20 -30 0 -23 4 -30 20
-30 11 0 20 -7 20 -15 0 -13 27 -15 185 -15 158 0 185 2 185 15 0 11 12 15 45
15 43 0 45 1 45 30 0 17 5 30 10 30 6 0 10 18 10 40 0 29 4 40 15 40 13 0 15
34 15 250 l0 250 -85 0 c-69 0 -85 -3 -85 -15 0 -8 -9 -15 -20 -15 -11 0 -20
7 -20 15 0 12 -19 15 -115 15 -96 0 -115 -3 -115 -15z m230 -140 c0 -8 9 -15
20 -15 18 0 20 -7 20 -55 0 -48 -2 -55 -20 -55 -11 0 -20 -7 -20 -15 0 -12
-16 -15 -80 -15 -64 0 -80 3 -80 15 0 8 -7 15 -15 15 -12 0 -15 13 -15 55 0
42 3 55 15 55 8 0 15 7 15 15 0 12 16 15 80 15 64 0 80 -3 80 -15z"/>
<path d="M4520 1135 c0 -10 -10 -15 -30 -15 -28 0 -30 -2 -30 -40 0 -33 -3
-40 -20 -40 -11 0 -20 -7 -20 -15 0 -8 -8 -15 -19 -15 -16 0 -19 -9 -20 -85
-2 -79 0 -85 19 -85 16 0 20 -6 20 -35 0 -28 4 -35 20 -35 15 0 20 -7 20 -25
0 -21 5 -25 30 -25 23 0 30 -4 30 -20 0 -19 7 -20 115 -20 108 0 115 1 115 20
0 13 7 20 20 20 18 0 20 -7 20 -55 l0 -55 -45 0 c-38 0 -45 -3 -45 -20 0 -18
-7 -20 -55 -20 -47 0 -55 3 -55 19 0 15 -9 20 -37 22 -65 7 -93 0 -93 -22 0
-12 -7 -19 -20 -19 -16 0 -20 -7 -20 -30 0 -27 3 -30 30 -30 20 0 30 -5 30
-15 0 -13 26 -15 170 -15 144 0 170 2 170 15 0 11 11 15 40 15 33 0 40 3 40
20 0 11 7 20 15 20 10 0 15 10 15 30 0 23 4 30 20 30 20 0 20 7 20 270 l0 270
-75 0 c-60 0 -75 -3 -75 -15 0 -10 -11 -15 -35 -15 -24 0 -35 5 -35 15 0 12
-19 15 -115 15 -96 0 -115 -3 -115 -15z m230 -140 c0 -8 9 -15 20 -15 18 0 20
-7 20 -70 l0 -70 -100 0 c-82 0 -100 3 -100 15 0 8 -7 15 -15 15 -12 0 -15 13
-15 55 0 42 3 55 15 55 8 0 15 7 15 15 0 12 16 15 80 15 64 0 80 -3 80 -15z"/>
<path d="M3644 853 c5 -9 -3 -13 -28 -13 -29 0 -36 -4 -36 -20 0 -11 -7 -20
-15 -20 -12 0 -15 -13 -15 -60 0 -47 3 -60 15 -60 8 0 15 -7 15 -15 0 -12 16
-15 80 -15 64 0 80 3 80 15 0 8 9 15 20 15 18 0 20 7 20 60 0 53 -2 60 -20 60
-13 0 -20 7 -20 20 0 16 -7 20 -38 20 -21 0 -44 6 -51 13 -11 10 -13 10 -7 0z"/>
</g>
</svg>
